<svg height="14.669" viewBox="0 0 25.048 14.669" width="25.048" xmlns="http://www.w3.org/2000/svg"><g fill="#fff"><path d="m6.007 0h-4.947a1.06 1.06 0 0 0 -1.06 1.06v9.187a1.06 1.06 0 0 0 1.06 1.06h4.947a1.06 1.06 0 0 0 1.06-1.06v-9.187a1.06 1.06 0 0 0 -1.06-1.06zm-2.474 10.6a.707.707 0 1 1 .707-.707.706.706 0 0 1 -.707.707zm2.474-2.385a.266.266 0 0 1 -.265.265h-4.417a.266.266 0 0 1 -.265-.265v-6.89a.266.266 0 0 1 .265-.265h4.417a.266.266 0 0 1 .265.265z" transform="translate(17.981 3.362)"/><path d="m15.127 0h-13.752a1.376 1.376 0 0 0 -1.375 1.375v9.168a1.376 1.376 0 0 0 1.375 1.375h5.5l-.458 1.375h-2.062a.688.688 0 1 0 0 1.375h7.793a.688.688 0 1 0 0-1.375h-2.063l-.458-1.375h5.5a1.376 1.376 0 0 0 1.373-1.375v-9.168a1.376 1.376 0 0 0 -1.373-1.375zm-.458 10.085h-12.835v-8.251h12.835z"/></g></svg>