<svg height="120" viewBox="0 0 415 120" width="415" xmlns="http://www.w3.org/2000/svg" xmlns:xlink="http://www.w3.org/1999/xlink"><clipPath id="a"><path d="m0 0h415v7h-415z"/></clipPath><clipPath id="b"><path d="m0 0h378v7h-378z"/></clipPath><g fill="#fff"><g clip-path="url(#a)" transform="translate(0 113)"><circle cx="2" cy="2" r="2"/><circle cx="2" cy="2" r="2" transform="translate(10)"/><circle cx="2" cy="2" r="2" transform="translate(20)"/><circle cx="2" cy="2" r="2" transform="translate(30)"/><circle cx="2" cy="2" r="2" transform="translate(40)"/><circle cx="2" cy="2" r="2" transform="translate(50)"/><circle cx="2" cy="2" r="2" transform="translate(60)"/><circle cx="2" cy="2" r="2" transform="translate(70)"/><circle cx="2" cy="2" r="2" transform="translate(80)"/><circle cx="2" cy="2" r="2" transform="translate(90)"/><circle cx="2" cy="2" r="2" transform="translate(100)"/><circle cx="2" cy="2" r="2" transform="translate(110)"/><circle cx="2" cy="2" r="2" transform="translate(120)"/><circle cx="2" cy="2" r="2" transform="translate(130)"/><circle cx="2" cy="2" r="2" transform="translate(140)"/><circle cx="2" cy="2" r="2" transform="translate(150)"/><circle cx="2" cy="2" r="2" transform="translate(160)"/><circle cx="2" cy="2" r="2" transform="translate(170)"/><circle cx="2" cy="2" r="2" transform="translate(180)"/><circle cx="2" cy="2" r="2" transform="translate(190)"/><circle cx="2" cy="2" r="2" transform="translate(200)"/><circle cx="2" cy="2" r="2" transform="translate(210)"/><circle cx="2" cy="2" r="2" transform="translate(220)"/><circle cx="2" cy="2" r="2" transform="translate(230)"/><circle cx="2" cy="2" r="2" transform="translate(240)"/><circle cx="2" cy="2" r="2" transform="translate(250)"/><circle cx="2" cy="2" r="2" transform="translate(260)"/><circle cx="2" cy="2" r="2" transform="translate(270)"/><circle cx="2" cy="2" r="2" transform="translate(280)"/><circle cx="2" cy="2" r="2" transform="translate(290)"/><circle cx="2" cy="2" r="2" transform="translate(300)"/><circle cx="2" cy="2" r="2" transform="translate(310)"/><circle cx="2" cy="2" r="2" transform="translate(320)"/><circle cx="2" cy="2" r="2" transform="translate(330)"/><circle cx="2" cy="2" r="2" transform="translate(340)"/><circle cx="2" cy="2" r="2" transform="translate(350)"/><circle cx="2" cy="2" r="2" transform="translate(360)"/><circle cx="2" cy="2" r="2" transform="translate(370)"/><circle cx="2" cy="2" r="2" transform="translate(380)"/><circle cx="2" cy="2" r="2" transform="translate(390)"/><circle cx="2" cy="2" r="2" transform="translate(400)"/><circle cx="2" cy="2" r="2" transform="translate(410)"/></g><text font-family="rounded-mplus-1c-bold, 'Rounded M\+ \31 c'" font-size="32" font-weight="700" letter-spacing=".08em" transform="translate(0 99)"><tspan x="0" y="0">アットホームな</tspan><tspan y="0">歯医者</tspan><tspan y="0">さん</tspan></text><g clip-path="url(#b)" transform="translate(0 48)"><circle cx="2" cy="2" r="2"/><circle cx="2" cy="2" r="2" transform="translate(10)"/><circle cx="2" cy="2" r="2" transform="translate(20)"/><circle cx="2" cy="2" r="2" transform="translate(30)"/><circle cx="2" cy="2" r="2" transform="translate(40)"/><circle cx="2" cy="2" r="2" transform="translate(50)"/><circle cx="2" cy="2" r="2" transform="translate(60)"/><circle cx="2" cy="2" r="2" transform="translate(70)"/><circle cx="2" cy="2" r="2" transform="translate(80)"/><circle cx="2" cy="2" r="2" transform="translate(90)"/><circle cx="2" cy="2" r="2" transform="translate(100)"/><circle cx="2" cy="2" r="2" transform="translate(110)"/><circle cx="2" cy="2" r="2" transform="translate(120)"/><circle cx="2" cy="2" r="2" transform="translate(130)"/><circle cx="2" cy="2" r="2" transform="translate(140)"/><circle cx="2" cy="2" r="2" transform="translate(150)"/><circle cx="2" cy="2" r="2" transform="translate(160)"/><circle cx="2" cy="2" r="2" transform="translate(170)"/><circle cx="2" cy="2" r="2" transform="translate(180)"/><circle cx="2" cy="2" r="2" transform="translate(190)"/><circle cx="2" cy="2" r="2" transform="translate(200)"/><circle cx="2" cy="2" r="2" transform="translate(210)"/><circle cx="2" cy="2" r="2" transform="translate(220)"/><circle cx="2" cy="2" r="2" transform="translate(230)"/><circle cx="2" cy="2" r="2" transform="translate(240)"/><circle cx="2" cy="2" r="2" transform="translate(250)"/><circle cx="2" cy="2" r="2" transform="translate(260)"/><circle cx="2" cy="2" r="2" transform="translate(270)"/><circle cx="2" cy="2" r="2" transform="translate(280)"/><circle cx="2" cy="2" r="2" transform="translate(290)"/><circle cx="2" cy="2" r="2" transform="translate(300)"/><circle cx="2" cy="2" r="2" transform="translate(310)"/><circle cx="2" cy="2" r="2" transform="translate(320)"/><circle cx="2" cy="2" r="2" transform="translate(330)"/><circle cx="2" cy="2" r="2" transform="translate(340)"/><circle cx="2" cy="2" r="2" transform="translate(350)"/><circle cx="2" cy="2" r="2" transform="translate(360)"/><circle cx="2" cy="2" r="2" transform="translate(370)"/></g><text font-family="rounded-mplus-1c-bold, 'Rounded M\+ \31 c'" font-size="32" font-weight="700" letter-spacing=".08em" transform="translate(0 34)"><tspan x="0" y="0">街</tspan><tspan y="0">の</tspan><tspan y="0">皆</tspan><tspan y="0">さまの</tspan><tspan y="0">笑顔</tspan><tspan y="0">を</tspan><tspan y="0">守</tspan><tspan y="0">る</tspan></text></g></svg>